<?xml version="1.0" standalone="no"?>
<!DOCTYPE svg PUBLIC "-//W3C//DTD SVG 20010904//EN"
 "http://www.w3.org/TR/2001/REC-SVG-20010904/DTD/svg10.dtd">
<svg version="1.0" xmlns="http://www.w3.org/2000/svg"
 width="670.000000pt" height="372.000000pt" viewBox="0 0 670.000000 372.000000"
 preserveAspectRatio="xMidYMid meet">

<g transform="translate(0.000000,372.000000) scale(0.100000,-0.100000)"
fill="#ffffff" stroke="none">
<path d="M3040 2995 c-36 -7 -110 -21 -165 -30 -55 -9 -136 -22 -180 -30 -44
-7 -125 -21 -180 -30 -55 -9 -136 -23 -180 -30 -44 -8 -125 -21 -180 -30 -55
-9 -134 -23 -175 -30 -41 -8 -111 -19 -155 -25 -44 -6 -116 -17 -160 -25 -44
-8 -125 -21 -180 -30 -55 -9 -134 -23 -175 -30 -41 -7 -120 -21 -175 -30 -55
-9 -136 -22 -180 -30 -44 -7 -125 -21 -180 -30 -55 -9 -136 -23 -180 -30 -44
-8 -125 -21 -180 -30 -55 -9 -130 -23 -166 -31 -37 -8 -76 -14 -88 -14 l-21 0
2 -657 3 -658 50 -8 c28 -4 91 -14 140 -22 150 -24 286 -46 370 -60 44 -7 127
-21 185 -30 58 -9 141 -22 185 -30 44 -7 127 -21 185 -30 58 -9 140 -23 183
-31 42 -8 87 -14 100 -14 12 0 54 -6 92 -14 39 -8 108 -20 155 -26 47 -6 123
-17 170 -25 47 -8 130 -21 185 -30 55 -9 138 -23 185 -31 47 -7 126 -20 175
-28 50 -8 135 -22 190 -30 249 -40 295 -48 368 -62 69 -13 87 -13 160 0 45 8
127 23 182 31 55 9 136 23 180 30 44 7 127 21 185 30 58 9 141 23 185 30 44 7
123 20 175 29 52 8 136 22 185 30 50 8 124 19 165 25 116 18 357 56 535 86 44
8 123 20 175 29 175 28 294 47 375 61 44 7 127 21 185 30 58 9 138 23 178 31
40 8 84 14 98 14 14 0 56 7 95 16 l69 16 0 658 0 659 -47 6 c-27 3 -88 12
-138 21 -131 21 -256 41 -370 59 -55 8 -138 22 -185 30 -47 7 -132 21 -190 30
-58 8 -130 20 -160 26 -30 6 -84 14 -120 19 -36 4 -92 12 -125 18 -134 24
-244 42 -325 52 -47 6 -121 17 -165 25 -44 7 -127 21 -185 30 -58 8 -130 20
-160 26 -30 6 -84 14 -120 19 -36 4 -92 13 -125 18 -65 12 -194 33 -350 57
-55 9 -136 22 -180 30 -94 18 -118 18 -205 0z m245 -90 c123 -21 240 -41 365
-60 58 -9 143 -23 190 -30 47 -8 121 -19 165 -25 44 -6 118 -17 165 -25 47 -8
132 -21 190 -30 58 -9 143 -23 190 -30 83 -14 186 -30 373 -60 106 -16 254
-40 377 -60 47 -7 132 -21 190 -30 150 -23 283 -44 375 -61 44 -8 90 -14 102
-14 12 0 45 -5 73 -11 l50 -11 0 -587 0 -587 -62 -12 c-35 -6 -99 -16 -143
-22 -44 -6 -120 -18 -170 -26 -49 -8 -128 -21 -175 -29 -47 -7 -130 -21 -185
-30 -131 -21 -319 -51 -560 -90 -55 -9 -143 -23 -195 -31 -52 -9 -131 -22
-175 -29 -44 -7 -127 -21 -185 -30 -58 -9 -141 -22 -185 -30 -44 -8 -118 -19
-165 -25 -47 -6 -121 -17 -165 -25 -44 -8 -127 -21 -185 -30 -58 -9 -141 -23
-185 -30 -198 -34 -215 -36 -273 -26 -31 6 -102 17 -157 26 -55 9 -140 22
-190 30 -212 34 -284 45 -355 55 -41 6 -113 17 -160 25 -47 7 -132 21 -190 30
-155 25 -313 50 -560 90 -132 21 -268 43 -377 60 -51 8 -135 22 -185 30 -51 8
-138 22 -193 30 -55 9 -138 23 -185 30 -47 8 -121 19 -165 25 -44 6 -95 13
-113 16 l-32 5 2 587 3 587 40 7 c22 4 74 12 115 18 81 12 218 34 345 55 44 8
125 21 180 30 55 9 136 23 180 30 44 8 125 21 180 30 55 9 136 23 180 30 44 7
125 21 180 30 104 17 222 37 360 60 138 23 267 44 345 55 41 6 111 17 155 25
82 14 202 33 373 61 53 8 124 21 157 29 83 18 164 18 270 0z"/>
<path d="M3100 2833 c-19 -2 -64 -10 -100 -17 -36 -8 -103 -19 -150 -26 -47
-6 -121 -17 -165 -25 -44 -8 -125 -21 -180 -30 -55 -9 -136 -22 -180 -30 -44
-7 -125 -21 -180 -30 -55 -9 -136 -23 -180 -30 -108 -18 -240 -40 -360 -60
-55 -9 -136 -22 -180 -30 -44 -7 -125 -21 -180 -30 -55 -9 -136 -22 -180 -30
-44 -7 -111 -18 -150 -24 -140 -21 -272 -42 -343 -57 -40 -7 -83 -14 -96 -14
-13 0 -56 -7 -95 -16 l-71 -16 2 -511 3 -512 75 -12 c41 -7 116 -20 165 -28
50 -8 131 -21 180 -29 50 -8 126 -20 170 -26 44 -6 121 -18 170 -26 140 -22
266 -43 373 -59 53 -9 122 -21 152 -26 30 -6 84 -14 120 -19 36 -4 92 -13 125
-18 33 -6 103 -18 155 -27 52 -8 136 -21 185 -29 50 -8 135 -22 190 -31 55 -8
141 -22 190 -30 196 -32 273 -44 345 -55 41 -6 111 -17 155 -25 68 -11 91 -11
155 1 41 7 109 18 150 24 80 11 192 29 355 55 150 25 259 43 365 59 52 9 136
22 185 30 50 8 135 22 190 31 96 16 178 29 370 60 286 47 462 74 540 86 82 12
227 35 340 54 44 8 128 22 188 32 l107 17 0 517 c0 567 4 529 -58 529 -15 0
-63 7 -107 15 -104 19 -248 41 -355 55 -47 6 -116 18 -155 26 -38 8 -81 14
-95 14 -14 0 -61 6 -105 14 -92 17 -225 38 -375 61 -58 9 -143 23 -190 30 -47
8 -130 21 -185 30 -55 8 -142 22 -192 30 -51 9 -136 22 -188 30 -212 33 -284
45 -375 59 -52 9 -129 20 -170 26 -41 6 -113 17 -160 25 -108 18 -156 22 -200
18z m-640 -170 c0 -5 22 -31 48 -59 53 -58 72 -80 157 -179 74 -86 104 -121
130 -149 11 -12 45 -51 75 -85 30 -35 60 -69 66 -75 6 -6 55 -63 109 -126 54
-63 105 -115 114 -115 14 0 83 73 180 189 9 10 25 29 36 41 11 13 45 51 75 86
30 35 70 78 88 96 17 19 32 36 32 39 0 3 11 15 23 27 13 12 52 56 87 97 35 41
76 87 92 102 15 15 28 29 28 32 0 2 18 24 40 47 l40 43 -16 -47 c-9 -26 -20
-49 -25 -53 -5 -3 -9 -12 -9 -20 0 -7 -13 -42 -28 -76 -16 -35 -37 -83 -47
-108 -10 -25 -31 -73 -47 -108 -15 -34 -28 -67 -28 -72 0 -6 -4 -18 -9 -28 -5
-9 -15 -33 -24 -52 -8 -19 -22 -53 -32 -75 -35 -82 -43 -101 -65 -155 -12 -30
-26 -59 -31 -65 -5 -5 -9 -15 -9 -22 0 -7 -13 -41 -28 -75 -16 -35 -37 -83
-47 -108 -10 -25 -31 -73 -47 -108 -15 -34 -28 -67 -28 -72 0 -6 -4 -18 -9
-28 -5 -9 -13 -28 -19 -42 -6 -14 -20 -47 -32 -75 -12 -27 -25 -59 -30 -70
-12 -30 -44 -105 -63 -148 -9 -21 -17 -43 -17 -50 0 -7 -9 -22 -18 -35 l-18
-24 -28 69 c-15 37 -32 77 -36 88 -5 11 -17 40 -28 65 -35 81 -49 115 -62 150
-6 19 -18 50 -26 68 -8 17 -20 47 -27 65 -8 17 -21 48 -29 67 -9 19 -37 87
-63 150 -53 129 -65 157 -90 215 -9 22 -21 49 -25 60 -5 11 -17 40 -28 65 -11
25 -27 66 -36 92 -9 26 -20 56 -24 65 -15 30 -38 83 -87 203 -26 63 -57 135
-67 160 -11 25 -24 56 -30 70 -6 14 -14 33 -19 43 -6 10 -5 17 1 17 5 0 10 -3
10 -7z m-98 -339 c61 -23 128 -58 128 -66 0 -5 5 -8 10 -8 13 0 97 -88 115
-120 34 -63 47 -101 62 -180 30 -160 -17 -318 -126 -428 -65 -65 -118 -96
-211 -123 -230 -67 -486 68 -563 296 -22 68 -31 187 -19 261 28 166 147 308
306 364 68 25 238 27 298 4z m-797 -36 c28 -15 60 -37 73 -51 27 -29 62 -124
62 -170 0 -79 -64 -197 -118 -219 -26 -10 -26 -11 -7 -22 10 -6 32 -23 47 -38
24 -23 28 -34 28 -82 0 -47 4 -57 26 -75 15 -12 37 -21 50 -21 24 0 24 -1 24
-110 l0 -110 -127 1 c-236 1 -255 16 -264 206 -7 151 -15 163 -105 163 l-54 0
0 -79 0 -80 43 -3 42 -3 0 -100 0 -100 -240 0 -240 0 -3 103 -3 102 46 0 45 0
0 265 0 265 -45 0 -45 0 0 96 0 96 358 -4 357 -4 50 -26z m2895 -148 l0 -181
-72 3 -73 3 -15 60 c-26 99 -22 95 -90 95 l-60 0 0 -70 0 -69 63 -3 62 -3 3
-97 3 -98 -66 0 -65 0 0 -90 0 -90 60 0 c69 0 67 -2 110 138 l22 72 64 0 64 0
0 -210 0 -210 -355 0 -355 0 0 105 0 105 40 0 40 0 0 260 0 260 -40 0 -40 0 0
100 0 100 350 0 350 0 0 -180z m838 145 c68 -38 98 -78 119 -157 16 -60 15
-66 -2 -123 -25 -79 -60 -132 -104 -154 l-35 -18 37 -18 c47 -22 50 -27 58
-102 7 -71 23 -92 74 -100 l36 -6 -3 -106 -3 -106 -140 0 c-175 0 -209 10
-236 69 -14 32 -19 65 -19 145 0 94 -2 107 -22 128 -17 18 -32 23 -75 23 l-53
0 0 -80 0 -80 40 0 40 0 0 -105 0 -105 -240 0 -240 0 0 105 0 105 45 0 45 0 0
265 0 265 -45 0 -45 0 0 96 0 96 358 -4 357 -3 53 -30z"/>
<path d="M2178 2119 c-48 -18 -69 -68 -75 -177 -3 -54 -2 -137 1 -184 7 -73
12 -91 35 -119 24 -28 33 -32 76 -32 43 0 52 4 76 32 39 48 56 182 39 321 -7
57 -18 107 -26 115 -8 7 -14 18 -14 23 0 7 -68 34 -81 31 -2 0 -16 -5 -31 -10z"/>
<path d="M1210 2030 l0 -100 48 0 c51 0 75 14 100 57 16 30 15 83 -2 106 -16
20 -66 37 -113 37 l-33 0 0 -100z"/>
<path d="M4930 2030 l0 -100 49 0 c84 0 137 69 110 144 -13 37 -54 56 -123 56
l-36 0 0 -100z"/>
<path d="M6250 2515 c0 -9 9 -15 25 -15 24 0 25 -2 25 -70 0 -56 3 -70 15 -70
12 0 15 14 15 70 0 68 1 70 25 70 16 0 25 6 25 15 0 12 -14 15 -65 15 -51 0
-65 -3 -65 -15z"/>
<path d="M6385 2483 c-3 -27 -8 -65 -11 -86 -4 -33 -2 -38 13 -35 13 2 19 16
23 52 l5 48 20 -51 c11 -28 24 -51 30 -51 5 0 20 24 32 53 20 47 22 49 23 22
1 -46 11 -75 26 -75 13 0 13 12 0 115 -3 17 -5 36 -5 43 -2 20 -25 14 -40 -10
-8 -13 -17 -36 -21 -53 -7 -37 -23 -36 -31 2 -7 36 -30 73 -46 73 -7 0 -14
-21 -18 -47z"/>
</g>
</svg>
