<?xml version="1.0" standalone="no"?>
<!DOCTYPE svg PUBLIC "-//W3C//DTD SVG 20010904//EN"
 "http://www.w3.org/TR/2001/REC-SVG-20010904/DTD/svg10.dtd">
<svg version="1.0" xmlns="http://www.w3.org/2000/svg"
 width="1132.000000pt" height="1132.000000pt" viewBox="0 0 1132.000000 1132.000000"
 preserveAspectRatio="xMidYMid meet">

<g transform="translate(0.000000,1132.000000) scale(0.100000,-0.100000)"
fill="#000000" stroke="none">
<path d="M2994 7668 c-2062 -2064 -2666 -2674 -2687 -2714 -38 -72 -57 -156
-57 -249 0 -149 47 -263 149 -366 159 -159 388 -200 596 -107 65 30 92 54 387
347 194 192 321 311 327 306 5 -6 53 -66 108 -135 753 -941 1850 -1586 3038
-1784 320 -54 414 -61 820 -61 466 0 671 20 1050 100 961 206 1828 686 2520
1396 142 146 305 331 305 347 0 4 -119 126 -266 272 l-265 265 -32 -40 c-216
-269 -504 -549 -773 -752 -519 -392 -1163 -671 -1804 -782 -269 -46 -392 -56
-725 -55 -342 0 -457 9 -745 60 -381 67 -783 200 -1130 374 -583 292 -1067
695 -1494 1244 l-78 99 1709 1709 1708 1708 2275 -2274 c1452 -1452 2295
-2287 2330 -2309 89 -58 169 -80 285 -81 80 -1 114 4 168 22 306 106 442 440
300 740 -23 50 -342 373 -2687 2720 -1464 1464 -2663 2662 -2666 2662 -3 0
-1202 -1198 -2666 -2662z"/>
<path d="M4570 6295 l0 -475 475 0 475 0 0 475 0 475 -475 0 -475 0 0 -475z"/>
<path d="M5800 6295 l0 -475 475 0 475 0 0 475 0 475 -475 0 -475 0 0 -475z"/>
<path d="M4570 5043 l0 -473 475 0 475 0 0 470 0 470 -475 2 -475 3 0 -472z"/>
<path d="M5800 5040 l0 -470 475 0 475 0 0 470 0 470 -475 0 -475 0 0 -470z"/>
</g>
</svg>
