<?xml version="1.0" standalone="no"?>
<!DOCTYPE svg PUBLIC "-//W3C//DTD SVG 20010904//EN"
 "http://www.w3.org/TR/2001/REC-SVG-20010904/DTD/svg10.dtd">
<svg version="1.0" xmlns="http://www.w3.org/2000/svg"
 width="153.000000pt" height="119.000000pt" viewBox="0 0 153.000000 119.000000"
 preserveAspectRatio="xMidYMid meet">

<g transform="translate(0.000000,119.000000) scale(0.100000,-0.100000)"
fill="#000000" stroke="none">
<path d="M334 1024 c-8 -71 0 -190 21 -280 23 -100 18 -96 119 -88 77 6 86 9
73 22 -10 9 -37 15 -74 16 l-58 1 -13 40 c-7 22 -18 76 -23 119 -11 90 -1 118
26 67 23 -45 117 -157 183 -218 31 -29 54 -55 51 -58 -10 -9 -157 -35 -200
-35 l-40 0 17 -32 c9 -18 35 -54 56 -80 38 -46 42 -48 93 -48 73 0 160 30 299
103 111 57 149 87 113 87 -8 0 -79 -32 -157 -71 -100 -50 -162 -75 -208 -82
l-65 -12 -33 39 c-19 22 -34 45 -34 51 0 7 31 16 74 23 69 11 146 38 146 52 0
3 -25 30 -56 60 -67 67 -184 209 -252 308 l-50 73 -8 -57z"/>
<path d="M970 1059 c-36 -4 -72 -9 -80 -12 -8 -2 -41 -9 -72 -17 -33 -7 -55
-17 -51 -23 3 -6 2 -7 -4 -4 -14 9 -83 -14 -76 -26 3 -6 1 -7 -4 -4 -12 7
-114 -45 -133 -68 -6 -8 -9 -19 -5 -25 9 -14 28 -1 21 16 -3 7 -1 16 4 19 6 4
10 1 10 -4 0 -6 5 -11 11 -11 6 0 8 7 5 15 -3 9 -1 15 7 14 20 -2 57 13 57 23
0 5 6 8 13 5 6 -2 23 4 36 14 13 11 34 19 46 19 12 0 25 3 29 7 8 8 11 9 86
23 30 6 62 14 70 17 8 3 29 5 45 4 17 -1 53 3 80 8 31 6 54 6 60 0 5 -6 5 -9
-1 -9 -5 0 -9 -37 -8 -84 l1 -85 -28 6 c-43 8 -161 -6 -152 -20 4 -6 0 -8 -10
-4 -31 12 -177 -47 -223 -90 l-25 -23 -22 21 c-20 19 -21 20 -2 13 20 -7 20
-7 1 14 -20 23 -32 29 -21 12 3 -5 2 -10 -4 -10 -22 0 -16 27 13 48 38 28 56
29 25 1 l-24 -21 25 16 c104 67 240 116 326 117 49 1 64 5 64 16 0 15 -2 15
-100 -2 -8 -1 -36 -6 -62 -9 -27 -4 -48 -12 -48 -17 0 -6 -4 -8 -8 -5 -11 7
-122 -32 -143 -50 -8 -8 -20 -14 -25 -14 -5 0 -25 -13 -44 -28 l-34 -29 40
-41 39 -42 76 37 c146 73 172 80 309 88 l75 4 1 106 1 105 -51 -1 c-28 -1 -80
-5 -116 -10z m-190 -153 c0 -2 -7 -7 -16 -10 -8 -3 -12 -2 -9 4 6 10 25 14 25
6z"/>
<path d="M950 784 c-25 -8 -52 -18 -60 -21 -8 -3 -21 -5 -29 -4 -8 1 -10 -2
-5 -10 5 -9 2 -10 -9 -6 -9 3 -22 1 -29 -6 -8 -7 -19 -13 -25 -14 -24 -5 -74
-41 -65 -47 5 -3 49 15 98 39 66 33 111 48 176 58 48 8 92 10 99 6 15 -9 29
-3 29 12 0 14 -130 10 -180 -7z"/>
<path d="M970 719 c-24 -5 -65 -19 -90 -32 -25 -13 -89 -46 -142 -74 -53 -28
-117 -54 -143 -57 -45 -7 -46 -8 -30 -26 16 -17 20 -17 68 -3 29 8 106 44 172
78 114 61 239 102 251 84 2 -4 -7 -31 -21 -59 -25 -49 -28 -52 -175 -124 -111
-55 -169 -77 -221 -86 -84 -14 -82 -21 26 -75 l75 -38 42 18 c72 31 235 155
204 155 -4 0 -49 -25 -100 -55 -99 -59 -150 -74 -185 -56 -31 17 -26 25 22 38
23 6 103 41 178 78 l137 66 30 62 c17 34 34 74 37 90 7 27 7 27 -41 26 -27 -1
-69 -5 -94 -10z"/>
<path d="M91 223 c-2 -22 42 -124 52 -120 13 4 59 127 47 127 -4 0 -17 -26
-28 -57 -16 -45 -22 -53 -27 -38 -11 36 -43 100 -44 88z"/>
<path d="M730 215 c-16 -19 -5 -34 37 -51 23 -10 33 -20 31 -32 -5 -24 -36
-27 -59 -6 -20 18 -27 6 -7 -14 16 -16 53 -15 68 3 18 22 8 48 -24 56 -30 8
-48 27 -40 41 8 12 48 9 64 -4 12 -11 12 -10 1 5 -16 21 -54 22 -71 2z"/>
<path d="M943 165 c0 -38 2 -53 4 -32 2 20 2 52 0 70 -2 17 -4 1 -4 -38z"/>
<path d="M618 207 c-3 -6 -3 -33 0 -59 3 -37 8 -48 21 -47 10 0 11 2 4 6 -17
6 -17 70 -1 75 9 3 8 9 -4 21 -11 12 -17 13 -20 4z"/>
<path d="M1094 166 c1 -44 5 -60 16 -63 10 -3 11 -2 3 4 -6 5 -14 33 -16 63
l-4 55 1 -59z"/>
<path d="M262 145 l1 -50 6 45 c4 28 11 44 19 43 6 -2 12 1 12 6 0 6 -9 9 -20
8 -17 -1 -20 -8 -18 -52z"/>
<path d="M327 193 c-13 -13 -7 -25 7 -14 14 12 46 5 46 -9 0 -5 -13 -11 -30
-15 -35 -8 -43 -17 -34 -39 4 -12 17 -16 40 -14 33 2 34 3 34 44 0 29 -5 44
-16 48 -20 8 -39 8 -47 -1z m53 -51 c0 -12 -23 -32 -37 -32 -19 0 -16 28 5 33
28 8 32 7 32 -1z"/>
<path d="M427 194 c-17 -17 -5 -43 25 -53 25 -9 29 -14 20 -23 -10 -10 -17
-10 -33 1 -18 10 -20 10 -17 -1 7 -21 54 -22 62 -1 7 18 -16 43 -41 43 -7 0
-13 4 -13 9 0 18 21 23 37 9 14 -11 16 -11 11 2 -5 16 -39 25 -51 14z"/>
<path d="M520 185 c-14 -17 0 -21 17 -4 11 11 33 5 33 -9 0 -4 -14 -13 -31
-19 -45 -17 -36 -48 14 -48 36 -1 37 0 37 35 0 55 -40 81 -70 45z m42 -67
c-12 -12 -42 -4 -42 11 0 12 44 19 49 8 2 -5 -1 -13 -7 -19z"/>
<path d="M871 197 c2 -1 13 -9 24 -17 19 -14 19 -14 6 3 -7 9 -18 17 -24 17
-6 0 -8 -1 -6 -3z"/>
<path d="M1192 188 c-7 -7 -12 -17 -12 -22 0 -6 5 -3 11 7 5 9 16 17 24 17 8
0 19 -8 24 -17 6 -10 11 -13 11 -7 0 13 -21 34 -35 34 -6 0 -16 -5 -23 -12z"/>
<path d="M1323 188 c9 -7 18 -31 20 -53 l4 -40 1 46 c2 35 -2 48 -14 53 -25
10 -29 7 -11 -6z"/>
<path d="M1389 184 c-11 -14 -10 -18 6 -30 10 -8 25 -14 32 -14 7 0 13 -5 13
-10 0 -18 -29 -23 -47 -9 -14 12 -16 12 -11 -1 7 -21 42 -24 58 -4 12 14 12
18 -5 30 -10 8 -25 14 -32 14 -19 0 -16 17 5 29 9 6 12 11 6 11 -6 0 -18 -7
-25 -16z"/>
<path d="M223 145 c0 -27 2 -38 4 -22 2 15 2 37 0 50 -2 12 -4 0 -4 -28z"/>
<path d="M847 183 c-21 -21 1 -83 29 -83 18 0 44 29 44 48 0 12 -4 9 -13 -8
-7 -14 -21 -25 -32 -25 -16 0 -20 7 -20 38 0 20 0 37 -1 37 0 0 -4 -3 -7 -7z"/>
<path d="M1143 145 c0 -27 2 -38 4 -22 2 15 2 37 0 50 -2 12 -4 0 -4 -28z"/>
<path d="M1280 143 c0 -25 2 -44 4 -42 8 10 13 89 5 89 -5 0 -9 -21 -9 -47z"/>
<path d="M1180 134 c0 -19 28 -36 50 -29 11 3 20 14 20 23 -1 16 -2 15 -11 0
-5 -10 -16 -18 -24 -18 -8 0 -19 8 -24 18 -6 9 -11 12 -11 6z"/>
<path d="M990 123 c0 -6 5 -15 10 -18 13 -8 50 4 50 16 0 5 -9 4 -20 -3 -17
-11 -22 -10 -30 2 -6 9 -10 10 -10 3z"/>
</g>
</svg>
